<svg xmlns="http://www.w3.org/2000/svg" width="1024" height="1024" viewBox="0 0 1024 1024">
  <defs>
    <linearGradient id="bg" x1="0" y1="0" x2="1" y2="1">
      <stop offset="0" stop-color="#121c29"/>
      <stop offset="1" stop-color="#05080d"/>
    </linearGradient>
    <linearGradient id="edge" x1="0" y1="0" x2="1" y2="1">
      <stop offset="0" stop-color="#86e7ff"/>
      <stop offset="0.55" stop-color="#22aee8"/>
      <stop offset="1" stop-color="#1764d8"/>
    </linearGradient>
    <filter id="glow" x="-50%" y="-50%" width="200%" height="200%">
      <feGaussianBlur stdDeviation="18" result="blur"/>
      <feMerge><feMergeNode in="blur"/><feMergeNode in="SourceGraphic"/></feMerge>
    </filter>
  </defs>
  <rect width="1024" height="1024" rx="224" fill="url(#bg)"/>
  <rect x="58" y="58" width="908" height="908" rx="184" fill="none" stroke="#74dfff" stroke-opacity=".18" stroke-width="8"/>
  <path d="M256 510c0-158 102-270 256-270 150 0 246 106 246 258v74H378c15 96 78 145 169 145 63 0 119-19 168-55v100c-53 35-119 53-198 53-160 0-261-116-261-305Zm124-31h260c-7-89-56-137-128-137-73 0-121 47-132 137Z" fill="url(#edge)" filter="url(#glow)"/>
  <g opacity=".72">
    <rect x="786" y="229" width="38" height="38" rx="7" fill="#ff5277"/>
    <rect x="832" y="229" width="38" height="38" rx="7" fill="#55df9b"/>
    <rect x="786" y="275" width="38" height="38" rx="7" fill="#55df9b"/>
    <rect x="832" y="275" width="38" height="38" rx="7" fill="#4ea4ff"/>
  </g>
</svg>

